<?xml version="1.0" encoding="utf-8" ?>	<!-- Generator: Assembly 2.2 - http://assemblyapp.co -->	<svg version="1.1" xmlns="http://www.w3.org/2000/svg" xmlns:xlink="http://www.w3.org/1999/xlink" width="2048.00" height="1152.00" viewBox="0 0 2048.0 1151.9999914169312">		<g id="document" transform="matrix(1,0,0,1,1024.0,575.9999957084656)">			<path d="M-833.302,70.5088 L-829.998,35.1069 L-853.599,35.1069 L-847.699,-23.8963 L-823.507,-24.0143 L-819.967,-59.4162 L-844.04,-59.5342 L-841.798,-82.8995 L-889.001,-82.7814 L-904.106,70.3908 L-833.302,70.5088 Z M-807.458,-59.5342 L-820.439,70.3908 L-773.591,70.5088 L-763.914,-23.8963 L-740.431,-23.8963 L-742.791,-0.17701 L-695.47,-0.17701 L-689.452,-59.5342 L-807.458,-59.5342 Z M-676.825,-59.1802 L-689.688,70.3908 L-642.722,70.3908 L-616.288,46.6715 L-619.002,70.5088 L-572.036,70.5088 L-558.937,-59.1802 L-676.825,-59.1802 Z M-615.226,35.1069 L-639.181,34.9889 L-633.281,-23.8963 L-609.562,-23.8963 L-615.226,35.1069 Z M-440.577,70.6268 L-421.932,-117.947 L-480.463,-117.947 L-484.121,-82.7814 L-472.438,-82.6634 L-484.121,35.3429 L-508.194,35.3429 L-502.294,-23.6603 L-490.139,-23.6603 L-486.481,-59.2982 L-545.838,-59.2982 L-558.701,70.6268 L-440.577,70.6268 Z M-415.205,-59.1802 L-428.068,70.3908 L-310.416,70.5088 L-306.757,34.9889 L-377.561,34.9889 L-371.661,-23.8963 L-347.942,-23.8963 L-364.817,23.4243 L-317.732,23.5423 L-300.857,-23.6603 L-297.317,-59.1802 L-415.205,-59.1802 Z M-284.454,-59.5342 L-297.435,70.3908 L-250.586,70.5088 L-240.91,-23.8963 L-217.427,-23.8963 L-219.787,-0.17701 L-172.466,-0.17701 L-166.448,-59.5342 L-284.454,-59.5342 Z M-52.5718,70.3908 L-39.4731,-59.1802 L-86.5577,-59.1802 L-99.6564,70.6268 L-52.5718,70.3908 Z M-26.6104,-59.1802 L-39.4731,70.3908 L7.25739,70.5088 L16.5799,-23.8963 L40.4172,-23.8963 L30.9767,70.6268 L77.8252,70.5088 L87.3837,-23.8963 L111.103,-23.8963 L96.9422,117.829 L144.145,117.947 L161.846,-59.1802 L-26.6104,-59.1802 Z M174.59,-59.1802 L161.728,70.3908 L208.458,70.5088 L217.781,-23.8963 L241.618,-23.8963 L232.177,70.6268 L279.026,70.5088 L288.585,-23.8963 L312.304,-23.8963 L298.143,117.829 L345.346,117.947 L363.047,-59.1802 L174.59,-59.1802 Z M375.555,-59.1802 L362.692,70.3908 L480.109,70.5088 L493.208,-59.1802 L375.555,-59.1802 Z M436.8,35.1069 L413.199,34.9889 L419.1,-23.8963 L442.583,-23.8963 L436.8,35.1069 Z M505.952,-59.5342 L492.971,70.3908 L539.82,70.5088 L549.497,-23.8963 L572.98,-23.8963 L570.62,-0.17701 L617.94,-0.17701 L623.959,-59.5342 L505.952,-59.5342 Z M694.526,70.5088 L697.831,35.1069 L674.229,35.1069 L680.13,-23.8963 L704.321,-24.0143 L707.861,-59.4162 L683.788,-59.5342 L686.03,-82.8995 L638.827,-82.7814 L623.723,70.3908 L694.526,70.5088 Z M720.37,-59.1802 L707.507,70.3908 L754.474,70.3908 L780.907,46.6715 L778.193,70.5088 L825.159,70.5088 L838.258,-59.1802 L720.37,-59.1802 Z M781.969,35.1069 L758.014,34.9889 L763.914,-23.8963 L787.633,-23.8963 L781.969,35.1069 Z M885.107,70.3908 L904.106,-117.947 L844.63,-117.947 L841.208,-83.0175 L853.363,-82.8995 L838.14,70.6268 L885.107,70.3908 Z " fill="#ba0a00" fill-opacity="1.00" />			<path d="M-444.287,282.827 L-410.074,298.018 L-410.074,292.337 L-438.177,280.383 L-410.074,268.395 L-410.074,262.715 L-444.287,277.939 L-444.287,282.827 Z M-402.016,263.21 L-405.451,263.21 L-405.451,268.461 L-402.016,268.461 L-402.016,289.035 C-402.016,291.743 -401.224,293.813 -399.638,295.244 C-398.097,296.741 -396.116,297.489 -393.694,297.489 L-390.094,297.489 L-390.094,290.983 L-392.67,290.983 C-394.344,291.028 -395.158,290.18 -395.114,288.441 L-395.114,268.461 L-390.094,268.461 L-390.094,263.21 L-395.114,263.21 L-395.114,252.775 L-402.016,252.775 L-402.016,263.21 Z M-383.622,297.489 L-376.72,297.489 L-376.72,277.08 C-376.72,274.681 -376.07,272.853 -374.771,271.598 C-373.494,270.322 -371.865,269.683 -369.884,269.683 C-367.902,269.683 -366.284,270.322 -365.029,271.598 C-363.752,272.853 -363.114,274.681 -363.114,277.08 L-363.114,297.489 L-356.212,297.489 L-356.212,274.703 C-356.322,270.784 -357.544,267.812 -359.878,265.786 C-362.233,263.783 -364.831,262.781 -367.671,262.781 C-371.348,262.781 -374.32,264.135 -376.588,266.843 L-376.72,266.843 L-376.72,249.34 L-383.622,249.34 L-383.622,297.489 Z M-320.711,282.959 L-320.711,277.279 C-320.755,272.765 -322.153,269.221 -324.905,266.645 C-327.613,264.113 -330.927,262.825 -334.846,262.781 C-336.475,262.781 -338.126,263.078 -339.799,263.673 C-341.494,264.267 -343.024,265.236 -344.389,266.579 C-345.732,267.9 -346.833,269.705 -347.692,271.995 C-348.55,274.24 -348.98,277.058 -348.98,280.449 C-348.98,283.971 -348.484,286.833 -347.494,289.035 C-346.591,291.325 -345.413,293.108 -343.96,294.385 C-343.212,295.001 -342.408,295.519 -341.549,295.937 C-340.735,296.421 -339.898,296.807 -339.04,297.093 C-337.322,297.621 -335.561,297.885 -333.756,297.885 C-329.022,297.93 -324.905,296.08 -321.405,292.337 L-326.391,288.077 C-328.593,290.301 -331.092,291.413 -333.888,291.413 C-336.288,291.413 -338.225,290.686 -339.7,289.233 C-341.285,287.802 -342.078,285.711 -342.078,282.959 L-320.711,282.959 Z M-342.078,277.279 C-341.946,274.615 -341.23,272.6 -339.931,271.235 C-338.61,269.936 -336.915,269.287 -334.846,269.287 C-332.776,269.287 -331.081,269.936 -329.76,271.235 C-328.417,272.6 -327.701,274.615 -327.613,277.279 L-342.078,277.279 Z M-297.264,285.997 C-297.22,289.872 -295.954,292.8 -293.467,294.781 C-291.177,296.807 -288.612,297.841 -285.772,297.885 C-282.117,297.885 -279.156,296.531 -276.889,293.824 L-276.757,293.824 L-276.757,297.489 L-269.855,297.489 L-269.855,263.21 L-276.757,263.21 L-276.757,283.619 C-276.757,285.931 -277.395,287.736 -278.672,289.035 C-279.927,290.334 -281.545,290.983 -283.526,290.983 C-285.508,290.983 -287.137,290.334 -288.414,289.035 C-289.713,287.736 -290.362,285.931 -290.362,283.619 L-290.362,263.21 L-297.264,263.21 L-297.264,285.997 Z M-260.938,289.167 C-260.938,292.183 -260.08,294.33 -258.362,295.607 C-256.733,296.862 -254.664,297.489 -252.154,297.489 L-249.083,297.489 L-249.083,290.983 L-251.46,290.983 C-253.178,290.983 -254.036,290.202 -254.036,288.639 L-254.036,249.34 L-260.938,249.34 L-260.938,289.167 Z M-243.105,263.21 L-246.54,263.21 L-246.54,268.461 L-243.105,268.461 L-243.105,289.035 C-243.105,291.743 -242.313,293.813 -240.728,295.244 C-239.186,296.741 -237.205,297.489 -234.783,297.489 L-231.184,297.489 L-231.184,290.983 L-233.759,290.983 C-235.433,291.028 -236.247,290.18 -236.203,288.441 L-236.203,268.461 L-231.184,268.461 L-231.184,263.21 L-236.203,263.21 L-236.203,252.775 L-243.105,252.775 L-243.105,263.21 Z M-224.513,297.489 L-217.611,297.489 L-217.611,263.21 L-224.513,263.21 L-224.513,297.489 Z M-224.513,256.242 L-217.611,256.242 L-217.611,249.34 L-224.513,249.34 L-224.513,256.242 Z M-208.1,297.489 L-201.198,297.489 L-201.198,277.08 C-201.198,274.681 -200.537,272.853 -199.217,271.598 C-197.962,270.322 -196.343,269.683 -194.362,269.683 C-192.381,269.683 -190.751,270.322 -189.474,271.598 C-188.22,272.853 -187.592,274.681 -187.592,277.08 L-187.592,297.489 L-180.69,297.489 L-180.69,277.08 C-180.69,274.681 -180.041,272.853 -178.742,271.598 C-177.465,270.322 -175.836,269.683 -173.854,269.683 C-171.873,269.683 -170.255,270.322 -169,271.598 C-167.745,272.853 -167.117,274.681 -167.117,277.08 L-167.117,297.489 L-160.215,297.489 L-160.215,274.703 C-160.303,270.784 -161.514,267.812 -163.848,265.786 C-166.204,263.783 -168.802,262.781 -171.642,262.781 C-176.155,262.737 -179.754,264.234 -182.44,267.272 C-183.629,265.951 -184.939,264.862 -186.37,264.003 C-187.823,263.232 -189.739,262.825 -192.116,262.781 C-195.815,262.781 -198.798,264.135 -201.066,266.843 L-201.198,266.843 L-201.198,263.21 L-208.1,263.21 L-208.1,297.489 Z M-132.872,297.489 L-125.97,297.489 L-125.97,274.075 C-126.014,269.892 -127.324,266.942 -129.899,265.225 C-132.475,263.552 -135.921,262.737 -140.236,262.781 C-145.344,262.693 -149.207,264.366 -151.827,267.801 L-146.411,271.929 C-145.817,270.938 -145.002,270.233 -143.968,269.815 C-142.977,269.463 -141.623,269.287 -139.906,269.287 C-135.172,269.199 -132.828,270.663 -132.872,273.679 L-132.872,277.279 L-142.415,277.279 C-146.07,277.323 -148.844,278.313 -150.737,280.251 C-152.631,282.144 -153.578,284.533 -153.578,287.417 C-153.578,290.433 -152.488,292.91 -150.308,294.847 C-148.239,296.829 -145.289,297.841 -141.458,297.885 C-139.124,297.885 -137.297,297.599 -135.976,297.027 C-134.633,296.476 -133.642,295.618 -133.004,294.451 L-132.872,294.451 L-132.872,297.489 Z M-132.872,285.435 C-132.872,288.011 -133.411,289.663 -134.49,290.389 C-135.679,291.116 -137.715,291.457 -140.599,291.413 C-142.889,291.413 -144.529,290.961 -145.52,290.059 C-146.554,289.244 -147.072,288.254 -147.072,287.087 C-147.116,284.423 -145.134,283.047 -141.128,282.959 L-132.872,282.959 L-132.872,285.435 Z M-116.657,263.21 L-120.091,263.21 L-120.091,268.461 L-116.657,268.461 L-116.657,289.035 C-116.657,291.743 -115.864,293.813 -114.279,295.244 C-112.738,296.741 -110.757,297.489 -108.335,297.489 L-104.735,297.489 L-104.735,290.983 L-107.311,290.983 C-108.984,291.028 -109.799,290.18 -109.755,288.441 L-109.755,268.461 L-104.735,268.461 L-104.735,263.21 L-109.755,263.21 L-109.755,252.775 L-116.657,252.775 L-116.657,263.21 Z M-71.6783,282.959 L-71.6783,277.279 C-71.7223,272.765 -73.1204,269.221 -75.8723,266.645 C-78.5803,264.113 -81.8937,262.825 -85.8125,262.781 C-87.4417,262.781 -89.0929,263.078 -90.7661,263.673 C-92.4613,264.267 -93.9914,265.236 -95.3564,266.579 C-96.6994,267.9 -97.8002,269.705 -98.6588,271.995 C-99.5174,274.24 -99.9467,277.058 -99.9467,280.449 C-99.9467,283.971 -99.4514,286.833 -98.4607,289.035 C-97.558,291.325 -96.3802,293.108 -94.9271,294.385 C-94.1786,295.001 -93.375,295.519 -92.5164,295.937 C-91.7018,296.421 -90.8652,296.807 -90.0066,297.093 C-88.2893,297.621 -86.528,297.885 -84.7227,297.885 C-79.9893,297.93 -75.8723,296.08 -72.3718,292.337 L-77.3584,288.077 C-79.56,290.301 -82.0588,291.413 -84.8548,291.413 C-87.2546,291.413 -89.192,290.686 -90.667,289.233 C-92.2522,287.802 -93.0448,285.711 -93.0448,282.959 L-71.6783,282.959 Z M-93.0448,277.279 C-92.9127,274.615 -92.1971,272.6 -90.8982,271.235 C-89.5773,269.936 -87.882,269.287 -85.8125,269.287 C-83.743,269.287 -82.0478,269.936 -80.7269,271.235 C-79.3839,272.6 -78.6684,274.615 -78.5803,277.279 L-93.0448,277.279 Z M-47.8351,263.21 L-51.2696,263.21 L-51.2696,268.461 L-47.8351,268.461 L-47.8351,289.035 C-47.8351,291.743 -47.0425,293.813 -45.4574,295.244 C-43.9162,296.741 -41.9348,297.489 -39.5131,297.489 L-35.9135,297.489 L-35.9135,290.983 L-38.4893,290.983 C-40.1625,291.028 -40.9771,290.18 -40.9331,288.441 L-40.9331,268.461 L-35.9135,268.461 L-35.9135,263.21 L-40.9331,263.21 L-40.9331,252.775 L-47.8351,252.775 L-47.8351,263.21 Z M-29.4408,297.489 L-22.5388,297.489 L-22.5388,276.849 C-22.4948,274.339 -21.7682,272.523 -20.3592,271.4 C-19.1043,270.256 -17.5962,269.683 -15.8349,269.683 C-14.2718,269.683 -12.7637,270.256 -11.3107,271.4 L-6.29105,265.423 C-8.33853,263.706 -10.7383,262.825 -13.4903,262.781 C-17.1669,262.781 -20.1391,264.135 -22.4067,266.843 L-22.5388,266.843 L-22.5388,263.21 L-29.4408,263.21 L-29.4408,297.489 Z M14.8773,297.489 L21.7792,297.489 L21.7792,274.075 C21.7352,269.892 20.4253,266.942 17.8494,265.225 C15.2735,263.552 11.8281,262.737 7.51293,262.781 C2.40524,262.693 -1.45855,264.366 -4.07845,267.801 L1.33747,271.929 C1.9319,270.938 2.74649,270.233 3.78123,269.815 C4.77195,269.463 6.12593,269.287 7.84317,269.287 C12.5766,269.199 14.9213,270.663 14.8773,273.679 L14.8773,277.279 L5.33336,277.279 C1.67871,277.323 -1.09529,278.313 -2.98866,280.251 C-4.88203,282.144 -5.82871,284.533 -5.82871,287.417 C-5.82871,290.433 -4.73893,292.91 -2.55935,294.847 C-0.489854,296.829 2.46028,297.841 6.29105,297.885 C8.62473,297.885 10.4521,297.599 11.773,297.027 C13.116,296.476 14.1067,295.618 14.7452,294.451 L14.8773,294.451 L14.8773,297.489 Z M14.8773,285.435 C14.8773,288.011 14.3379,289.663 13.2591,290.389 C12.0702,291.116 10.0338,291.457 7.14967,291.413 C4.86001,291.413 3.21983,290.961 2.22911,290.059 C1.19436,289.244 0.676989,288.254 0.676989,287.087 C0.632958,284.423 2.61439,283.047 6.62129,282.959 L14.8773,282.959 L14.8773,285.435 Z M51.2035,297.489 L58.1055,297.489 L58.1055,249.34 L51.2035,249.34 L51.2035,266.843 C49.9266,265.632 48.5946,264.641 47.2076,263.871 C45.7105,263.144 44.0814,262.781 42.3201,262.781 C38.1371,262.891 35.0769,264.388 33.1395,267.272 C32.1928,268.351 31.5653,269.771 31.2571,271.532 C30.8828,273.272 30.6957,276.2 30.6957,280.317 C30.6957,284.368 30.8828,287.274 31.2571,289.035 C31.5653,290.884 32.1928,292.348 33.1395,293.427 C34.1742,294.748 35.4621,295.805 37.0032,296.598 C38.4783,297.412 40.2506,297.841 42.3201,297.885 C45.9747,297.797 48.9359,296.465 51.2035,293.89 L51.2035,297.489 Z M44.4336,269.683 C46.0628,269.683 47.3507,270.002 48.2974,270.641 C49.2441,271.279 49.8936,272.116 50.2458,273.151 C50.6861,274.185 50.9834,275.308 51.1375,276.519 C51.1815,277.73 51.2035,278.996 51.2035,280.317 C51.2035,281.528 51.1815,282.761 51.1375,284.015 C50.9834,285.292 50.6861,286.448 50.2458,287.483 C49.8936,288.518 49.2441,289.354 48.2974,289.993 C47.3507,290.653 46.0628,290.983 44.4336,290.983 C42.8044,290.983 41.5605,290.675 40.7019,290.059 C39.7552,289.42 39.0617,288.606 38.6214,287.615 C38.2031,286.58 37.9279,285.413 37.7958,284.115 C37.6637,282.882 37.5977,281.616 37.5977,280.317 C37.5977,278.952 37.6637,277.62 37.7958,276.321 C37.9279,275.11 38.2031,273.987 38.6214,272.952 C39.0617,271.918 39.7552,271.103 40.7019,270.509 C41.5605,269.958 42.8044,269.683 44.4336,269.683 Z M65.9982,297.489 L72.9002,297.489 L72.9002,263.21 L65.9982,263.21 L65.9982,297.489 Z M65.9982,256.242 L72.9002,256.242 L72.9002,249.34 L65.9982,249.34 L65.9982,256.242 Z M82.0148,297.489 L88.9168,297.489 L88.9168,277.08 C88.9168,274.681 89.5662,272.853 90.8652,271.598 C92.1421,270.322 93.7713,269.683 95.7527,269.683 C97.7342,269.683 99.3523,270.322 100.607,271.598 C101.884,272.853 102.523,274.681 102.523,277.08 L102.523,297.489 L109.425,297.489 L109.425,274.703 C109.315,270.784 108.093,267.812 105.759,265.786 C103.403,263.783 100.805,262.781 97.9653,262.781 C94.2887,262.781 91.3165,264.135 89.0489,266.843 L88.9168,266.843 L88.9168,263.21 L82.0148,263.21 L82.0148,297.489 Z M137.627,297.423 C137.583,299.757 136.856,301.584 135.447,302.905 C134.016,304.204 132.123,304.854 129.767,304.854 C128.512,304.809 127.302,304.468 126.135,303.83 C124.99,303.257 123.977,302.564 123.096,301.749 L117.747,306.009 C121.027,309.752 124.99,311.667 129.635,311.756 C133.686,311.756 137.165,310.512 140.071,308.024 C142.955,305.602 144.441,301.815 144.529,296.664 L144.529,263.21 L137.627,263.21 L137.627,266.843 C135.139,264.135 132.189,262.781 128.777,262.781 C126.553,262.825 124.704,263.254 123.229,264.069 C121.687,264.928 120.51,265.896 119.695,266.975 C118.792,268.076 118.143,269.43 117.747,271.037 C117.328,272.666 117.119,275.781 117.119,280.383 C117.119,284.896 117.328,287.956 117.747,289.563 C118.143,291.193 118.792,292.569 119.695,293.691 C120.51,294.682 121.687,295.607 123.229,296.465 C124.704,297.368 126.553,297.841 128.777,297.885 C132.409,297.797 135.359,296.465 137.627,293.89 L137.627,297.423 Z M124.021,280.383 C124.021,277.719 124.109,275.87 124.285,274.835 C124.439,273.8 124.803,272.963 125.375,272.325 C125.837,271.709 126.542,271.103 127.489,270.509 C128.391,270.002 129.514,269.727 130.857,269.683 C132.2,269.727 133.323,270.002 134.226,270.509 C135.128,271.103 135.811,271.709 136.273,272.325 C136.845,272.963 137.231,273.8 137.429,274.835 C137.561,275.87 137.627,277.719 137.627,280.383 C137.627,283.003 137.561,284.808 137.429,285.799 C137.231,286.833 136.845,287.692 136.273,288.375 C135.811,288.991 135.128,289.552 134.226,290.059 C133.323,290.675 132.2,290.983 130.857,290.983 C129.514,290.983 128.391,290.675 127.489,290.059 C126.542,289.552 125.837,288.991 125.375,288.375 C124.803,287.692 124.439,286.833 124.285,285.799 C124.109,284.808 124.021,283.003 124.021,280.383 Z M169.66,311.359 L176.562,311.359 L176.562,293.824 C177.817,295.056 179.193,296.025 180.69,296.73 C182.077,297.5 183.651,297.885 185.413,297.885 C187.548,297.841 189.375,297.412 190.894,296.598 C192.436,295.805 193.68,294.748 194.626,293.427 C195.573,292.304 196.222,290.862 196.575,289.101 C196.905,287.34 197.07,284.434 197.07,280.383 C197.07,276.222 196.905,273.272 196.575,271.532 C196.222,269.771 195.573,268.351 194.626,267.272 C192.689,264.388 189.618,262.891 185.413,262.781 C181.802,262.891 178.852,264.223 176.562,266.777 L176.562,263.21 L169.66,263.21 L169.66,311.359 Z M183.332,290.983 C181.791,290.983 180.569,290.653 179.666,289.993 C178.72,289.354 178.026,288.518 177.586,287.483 C177.168,286.448 176.892,285.292 176.76,284.015 C176.628,282.805 176.562,281.594 176.562,280.383 C176.562,279.084 176.628,277.796 176.76,276.519 C176.892,275.308 177.168,274.185 177.586,273.151 C178.026,272.116 178.72,271.279 179.666,270.641 C180.569,270.002 181.791,269.683 183.332,269.683 C184.961,269.683 186.249,269.958 187.196,270.509 C188.143,271.103 188.814,271.918 189.21,272.952 C189.651,273.943 189.948,275.088 190.102,276.387 C190.146,277.686 190.168,279.018 190.168,280.383 C190.168,281.682 190.146,282.948 190.102,284.181 C189.948,285.435 189.651,286.58 189.21,287.615 C188.814,288.606 188.143,289.42 187.196,290.059 C186.249,290.675 184.961,290.983 183.332,290.983 Z M204.765,289.167 C204.765,292.183 205.623,294.33 207.34,295.607 C208.97,296.862 211.039,297.489 213.549,297.489 L216.62,297.489 L216.62,290.983 L214.242,290.983 C212.525,290.983 211.667,290.202 211.667,288.639 L211.667,249.34 L204.765,249.34 L204.765,289.167 Z M240.199,297.489 L247.101,297.489 L247.101,274.075 C247.057,269.892 245.747,266.942 243.171,265.225 C240.595,263.552 237.15,262.737 232.835,262.781 C227.727,262.693 223.863,264.366 221.243,267.801 L226.659,271.929 C227.254,270.938 228.068,270.233 229.103,269.815 C230.094,269.463 231.448,269.287 233.165,269.287 C237.898,269.199 240.243,270.663 240.199,273.679 L240.199,277.279 L230.655,277.279 C227.001,277.323 224.227,278.313 222.333,280.251 C220.44,282.144 219.493,284.533 219.493,287.417 C219.493,290.433 220.583,292.91 222.763,294.847 C224.832,296.829 227.782,297.841 231.613,297.885 C233.947,297.885 235.774,297.599 237.095,297.027 C238.438,296.476 239.429,295.618 240.067,294.451 L240.199,294.451 L240.199,297.489 Z M240.199,285.435 C240.199,288.011 239.66,289.663 238.581,290.389 C237.392,291.116 235.356,291.457 232.472,291.413 C230.182,291.413 228.542,290.961 227.551,290.059 C226.516,289.244 225.999,288.254 225.999,287.087 C225.955,284.423 227.936,283.047 231.943,282.959 L240.199,282.959 L240.199,285.435 Z M256.414,263.21 L252.979,263.21 L252.979,268.461 L256.414,268.461 L256.414,289.035 C256.414,291.743 257.206,293.813 258.792,295.244 C260.333,296.741 262.314,297.489 264.736,297.489 L268.335,297.489 L268.335,290.983 L265.76,290.983 C264.086,291.028 263.272,290.18 263.316,288.441 L263.316,268.461 L268.335,268.461 L268.335,263.21 L263.316,263.21 L263.316,252.775 L256.414,252.775 L256.414,263.21 Z M275.898,297.489 L282.8,297.489 L282.8,268.461 L289.702,268.461 L289.702,263.21 L282.8,263.21 L282.8,258.686 C282.712,256.727 283.703,255.78 285.772,255.846 L289.702,255.846 L289.702,249.34 L285.244,249.34 C282.58,249.34 280.367,250.056 278.606,251.487 C276.801,253.028 275.898,255.428 275.898,258.686 L275.898,263.21 L272.43,263.21 L272.43,268.461 L275.898,268.461 L275.898,297.489 Z M291.915,280.317 C291.915,283.927 292.212,286.679 292.806,288.573 C293.423,290.466 294.369,292.106 295.646,293.493 C296.593,294.572 297.914,295.541 299.609,296.399 C301.282,297.346 303.429,297.841 306.049,297.885 C308.757,297.841 310.947,297.346 312.62,296.399 C313.523,296.003 314.261,295.53 314.833,294.979 C315.472,294.495 316.011,294 316.451,293.493 C317.816,292.106 318.785,290.466 319.357,288.573 C319.908,286.679 320.183,283.927 320.183,280.317 C320.183,276.706 319.908,273.932 319.357,271.995 C318.785,270.101 317.816,268.505 316.451,267.206 C315.549,266.061 314.272,265.038 312.62,264.135 C310.947,263.276 308.757,262.825 306.049,262.781 C303.429,262.825 301.282,263.276 299.609,264.135 C297.914,265.038 296.593,266.061 295.646,267.206 C294.369,268.505 293.423,270.101 292.806,271.995 C292.212,273.932 291.915,276.706 291.915,280.317 Z M313.281,280.383 C313.281,282.717 313.171,284.434 312.951,285.535 C312.731,286.657 312.279,287.648 311.597,288.507 C311.09,289.167 310.342,289.751 309.351,290.257 C308.404,290.741 307.304,290.983 306.049,290.983 C304.882,290.983 303.803,290.741 302.812,290.257 C301.866,289.751 301.095,289.167 300.501,288.507 C299.906,287.648 299.477,286.657 299.213,285.535 C298.949,284.434 298.817,282.694 298.817,280.317 C298.817,277.917 298.949,276.156 299.213,275.033 C299.477,273.954 299.906,273.007 300.501,272.193 C301.095,271.422 301.866,270.817 302.812,270.377 C303.803,269.914 304.882,269.683 306.049,269.683 C307.304,269.683 308.404,269.914 309.351,270.377 C310.342,270.817 311.09,271.422 311.597,272.193 C312.279,273.007 312.731,273.954 312.951,275.033 C313.171,276.156 313.281,277.939 313.281,280.383 Z M327.415,297.489 L334.317,297.489 L334.317,276.849 C334.361,274.339 335.088,272.523 336.497,271.4 C337.752,270.256 339.26,269.683 341.021,269.683 C342.584,269.683 344.092,270.256 345.545,271.4 L350.565,265.423 C348.517,263.706 346.118,262.825 343.366,262.781 C339.689,262.781 336.717,264.135 334.449,266.843 L334.317,266.843 L334.317,263.21 L327.415,263.21 L327.415,297.489 Z M354.131,297.489 L361.033,297.489 L361.033,277.08 C361.033,274.681 361.694,272.853 363.015,271.598 C364.27,270.322 365.888,269.683 367.869,269.683 C369.851,269.683 371.48,270.322 372.757,271.598 C374.012,272.853 374.639,274.681 374.639,277.08 L374.639,297.489 L381.541,297.489 L381.541,277.08 C381.541,274.681 382.191,272.853 383.49,271.598 C384.767,270.322 386.396,269.683 388.377,269.683 C390.359,269.683 391.977,270.322 393.232,271.598 C394.487,272.853 395.114,274.681 395.114,277.08 L395.114,297.489 L402.016,297.489 L402.016,274.703 C401.928,270.784 400.717,267.812 398.383,265.786 C396.028,263.783 393.43,262.781 390.59,262.781 C386.077,262.737 382.477,264.234 379.791,267.272 C378.602,265.951 377.292,264.862 375.861,264.003 C374.408,263.232 372.493,262.825 370.115,262.781 C366.416,262.781 363.433,264.135 361.166,266.843 L361.033,266.843 L361.033,263.21 L354.131,263.21 L354.131,297.489 Z M410.074,298.018 L444.287,282.827 L444.287,277.939 L410.074,262.715 L410.074,268.395 L438.21,280.383 L410.074,292.337 L410.074,298.018 Z " fill="#720000" fill-opacity="1.00" />			<path d="M-5.98635,-258.637 L-5.98635,-239.024 L-5.98635,-233.675 L-0.363072,-233.675 C-0.0887655,-233.675 30.6335,-233.401 48.6006,-213.925 C55.8697,-206.108 59.9843,-196.095 61.2187,-184.026 C50.6579,-196.644 31.1822,-211.868 -0.363073,-211.868 L-5.98635,-211.868 L-5.98635,-206.382 L-5.98636,-186.769 L-60.1619,-222.566 L-5.98635,-258.637 Z M-0.36307,-268.924 L-70.0369,-222.84 L-0.363075,-176.757 L-0.363074,-206.519 C49.835,-206.519 66.4305,-165.922 66.4305,-165.922 C74.7969,-239.024 -0.363071,-239.024 -0.363071,-239.024 L-0.36307,-268.924 Z " fill="#ba0a00" fill-opacity="1.00" />			<path d="M5.1588,-87.8169 L74.8326,-133.9 L5.1588,-179.984 L5.1588,-150.222 C-45.0393,-150.222 -61.6348,-190.819 -61.6348,-190.819 C-70.0011,-117.716 5.1588,-117.716 5.1588,-117.716 L5.1588,-87.8169 Z " fill="#ba0a00" fill-opacity="1.00" />			<path d="M201.634,-330.983 C192.526,-325.378 178.512,-315.568 165.2,-302.956 C163.798,-301.555 161.696,-302.956 162.397,-305.058 C175.71,-335.888 166.601,-380.731 135.771,-410.86 C134.37,-412.261 132.268,-410.86 132.969,-409.458 C136.472,-394.044 136.472,-370.221 119.656,-377.228 C102.139,-384.935 86.7244,-415.064 100.037,-461.308 C100.738,-464.111 97.2345,-465.512 95.8332,-463.41 C88.1258,-450.097 79.0171,-429.778 70.609,-401.751 C65.7043,-383.534 59.3983,-367.418 50.9902,-356.207 C36.9768,-337.99 8.24928,-359.01 21.562,-377.928 C24.3647,-382.132 27.1674,-385.636 30.6708,-389.139 C35.5755,-394.044 75.5137,-433.982 69.2077,-509.654 C69.2077,-512.457 65.0036,-513.858 63.6023,-511.056 C53.0922,-490.036 25.0653,-445.893 -32.3897,-414.363 C-103.157,-375.826 -103.157,-325.378 -101.756,-320.473 C-101.055,-316.97 -110.164,-312.065 -109.463,-332.385 C-108.763,-354.105 -105.259,-373.724 -99.6541,-387.037 C-98.9534,-388.438 -101.055,-390.54 -102.457,-389.139 C-124.178,-370.921 -183.034,-328.181 -157.81,-204.162 C-157.109,-200.658 -160.612,-197.856 -164.116,-198.556 C-176.027,-202.76 -191.442,-206.264 -201.952,-206.964 C-204.755,-206.964 -205.455,-204.162 -203.353,-202.76 C-194.245,-195.754 -180.932,-183.842 -160.612,-152.312 C-136.79,-225.182 -68.8246,-277.032 11.0519,-277.032 C84.6224,-277.032 146.982,-233.59 175.71,-170.53 C175.71,-170.53 175.71,-170.53 175.71,-170.53 C175.71,-178.938 175.009,-187.346 173.608,-195.754 C168.703,-238.495 160.996,-271.426 203.737,-326.779 C205.138,-330.283 203.036,-331.684 201.634,-330.983 Z " fill="#db350f" fill-opacity="1.00" />		</g>	</svg>